<?xml version="1.0" encoding="UTF-8" standalone="no"?>
<svg
   width="64"
   height="64"
   viewBox="0 0 64.000001 64"
   version="1.1"
   id="svg1484"
   inkscape:version="1.1.1 (3bf5ae0d25, 2021-09-20)"
   sodipodi:docname="cpus.svg"
   xmlns:inkscape="http://www.inkscape.org/namespaces/inkscape"
   xmlns:sodipodi="http://sodipodi.sourceforge.net/DTD/sodipodi-0.dtd"
   xmlns="http://www.w3.org/2000/svg"
   xmlns:svg="http://www.w3.org/2000/svg"
   xmlns:rdf="http://www.w3.org/1999/02/22-rdf-syntax-ns#"
   xmlns:cc="http://creativecommons.org/ns#"
   xmlns:dc="http://purl.org/dc/elements/1.1/">
  <title
     id="title840">Elpida</title>
  <defs
     id="defs1478" />
  <sodipodi:namedview
     id="base"
     pagecolor="#ffffff"
     bordercolor="#666666"
     borderopacity="1.0"
     inkscape:pageopacity="0.0"
     inkscape:pageshadow="2"
     inkscape:zoom="8.0000002"
     inkscape:cx="2.3124999"
     inkscape:cy="33.812499"
     inkscape:document-units="px"
     inkscape:current-layer="layer1"
     inkscape:document-rotation="0"
     showgrid="false"
     fit-margin-top="1"
     fit-margin-left="1"
     fit-margin-right="1"
     fit-margin-bottom="1"
     units="px"
     inkscape:window-width="1920"
     inkscape:window-height="1017"
     inkscape:window-x="3232"
     inkscape:window-y="-8"
     inkscape:window-maximized="1"
     inkscape:object-paths="true"
     inkscape:snap-nodes="true"
     showguides="true"
     inkscape:pagecheckerboard="0"
     lock-margins="true" />
  <metadata
     id="metadata1481">
    <rdf:RDF>
      <cc:Work
         rdf:about="">
        <dc:format>image/svg+xml</dc:format>
        <dc:type
           rdf:resource="http://purl.org/dc/dcmitype/StillImage" />
        <dc:title>Elpida</dc:title>
        <dc:creator>
          <cc:Agent>
            <dc:title>Ioannis Panagiotopoulos</dc:title>
          </cc:Agent>
        </dc:creator>
        <cc:license
           rdf:resource="http://creativecommons.org/licenses/by-nc/4.0/" />
        <dc:rights>
          <cc:Agent>
            <dc:title>Ioannis Panagiotopoulos</dc:title>
          </cc:Agent>
        </dc:rights>
      </cc:Work>
      <cc:License
         rdf:about="http://creativecommons.org/licenses/by-nc/4.0/">
        <cc:permits
           rdf:resource="http://creativecommons.org/ns#Reproduction" />
        <cc:permits
           rdf:resource="http://creativecommons.org/ns#Distribution" />
        <cc:requires
           rdf:resource="http://creativecommons.org/ns#Notice" />
        <cc:requires
           rdf:resource="http://creativecommons.org/ns#Attribution" />
        <cc:prohibits
           rdf:resource="http://creativecommons.org/ns#CommercialUse" />
        <cc:permits
           rdf:resource="http://creativecommons.org/ns#DerivativeWorks" />
      </cc:License>
    </rdf:RDF>
  </metadata>
  <g
     inkscape:label="Layer 1"
     inkscape:groupmode="layer"
     id="layer1">
    <path
       d="m 18.541992,1.5146487 a 2,2 0 0 0 -2,2 v 6.4863273 h -0.541016 c -3.289402,0 -6,2.7106 -6,6 v 0.539062 H 3.5146487 a 2,2 0 0 0 -2,2 2,2 0 0 0 2,2 h 6.4863273 v 4.97461 H 3.5146487 a 2,2 0 0 0 -2,2 2,2 0 0 0 2,2 h 6.4863273 v 4.972656 H 3.5146487 a 2,2 0 0 0 -2,2 2,2 0 0 0 2,2 H 10.000976 V 43.45996 H 3.5146487 a 2,2 0 0 0 -2,2 2,2 0 0 0 2,2 h 6.4863273 v 0.541016 c 0,3.28941 2.710598,6 6,6 h 0.541016 v 6.484375 a 2,2 0 0 0 2,2 2,2 0 0 0 2,-2 v -6.484375 h 4.972656 v 6.484375 a 2,2 0 0 0 2,2 2,2 0 0 0 2,-2 v -6.484375 h 4.972656 v 6.484375 a 2,2 0 0 0 2,2 2,2 0 0 0 2,-2 v -6.484375 h 4.972656 v 6.484375 a 2,2 0 0 0 2,2 2,2 0 0 0 2,-2 v -6.484375 h 0.541016 c 3.289402,0 6,-2.71059 6,-6 V 47.45996 h 6.484375 a 2,2 0 0 0 2,-2 2,2 0 0 0 -2,-2 h -6.484375 v -4.972656 h 6.484375 a 2,2 0 0 0 2,-2 2,2 0 0 0 -2,-2 h -6.484375 v -4.972656 h 6.484375 a 2,2 0 0 0 2,-2 2,2 0 0 0 -2,-2 h -6.484375 v -4.97461 h 6.484375 a 2,2 0 0 0 2,-2 2,2 0 0 0 -2,-2 h -6.484375 v -0.539062 c 0,-3.2894 -2.710598,-6 -6,-6 H 47.45996 V 3.5146487 a 2,2 0 0 0 -2,-2 2,2 0 0 0 -2,2 V 10.000976 H 38.487304 V 3.5146487 a 2,2 0 0 0 -2,-2 2,2 0 0 0 -2,2 V 10.000976 H 29.514648 V 3.5146487 a 2,2 0 0 0 -2,-2 2,2 0 0 0 -2,2 V 10.000976 H 20.541992 V 3.5146487 a 2,2 0 0 0 -2,-2 z M 16.000976,14.000976 h 32 c 1.142594,0 2,0.85741 2,2 v 20.486328 11.513672 c 0,1.1426 -0.857406,2 -2,2 h -32 c -1.142593,0 -2,-0.8574 -2,-2 v -32 c 0,-1.14259 0.857407,-2 2,-2 z"
       id="path2071" />
  </g>
</svg>
